<?xml version="1.0" encoding="UTF-8"?>
<!DOCTYPE svg PUBLIC "-//W3C//DTD SVG 1.1//EN" "http://www.w3.org/Graphics/SVG/1.1/DTD/svg11.dtd">
<!-- Creator: CorelDRAW 2020 (64-Bit) -->
<svg xmlns="http://www.w3.org/2000/svg" xml:space="preserve" width="40.3754mm" height="38.5938mm" version="1.1" style="shape-rendering:geometricPrecision; text-rendering:geometricPrecision; image-rendering:optimizeQuality; fill-rule:evenodd; clip-rule:evenodd"
viewBox="0 0 142.94 136.63"
 xmlns:xlink="http://www.w3.org/1999/xlink"
 xmlns:xodm="http://www.corel.com/coreldraw/odm/2003">
 <defs>
  <style type="text/css">
   <![CDATA[
    .fil0 {fill:#E94C46;fill-rule:nonzero}
   ]]>
  </style>
 </defs>
 <g id="Layer_x0020_1">
  <metadata id="CorelCorpID_0Corel-Layer"/>
  <path class="fil0" d="M18.76 78.33c0.11,0.13 0.22,0.25 0.36,0.35 0.85,0.65 2.05,0.54 2.77,-0.25 9.65,-10.51 20.21,-22.02 32.45,-31.05 -11.65,11.51 -22.7,24.49 -28.98,40.16 -0.94,-1.17 -1.82,-2.3 -2.59,-3.39 -1.34,-1.89 -2.69,-3.83 -4.01,-5.83zm-7.92 -61.53c4.71,-6.94 11.24,-11.34 18.41,-12.4 1.2,-0.18 2.41,-0.27 3.63,-0.27 7.57,0 15.45,3.37 21.65,9.4 3.54,3.44 6.56,7.69 9.03,12.7 -4.9,2.12 -9.65,4.62 -14.2,7.47 3.09,-2.85 6.22,-5.65 9.37,-8.39 0.77,-0.67 0.94,-1.8 0.39,-2.67 -0.55,-0.86 -1.64,-1.19 -2.58,-0.78 -6.77,3 -13.25,6.67 -19.34,10.91 4.67,-5.16 9.48,-10.18 14.41,-15.05 0.73,-0.72 0.82,-1.87 0.21,-2.7 -0.61,-0.83 -1.74,-1.08 -2.64,-0.59 -6.74,3.64 -13.15,7.78 -19.2,12.39 5.06,-5.5 10.36,-10.77 15.58,-15.95 0.75,-0.74 0.82,-1.91 0.17,-2.73 -0.64,-0.82 -1.8,-1.04 -2.69,-0.5 -6.1,3.68 -11.99,7.68 -17.66,11.98l8.66 -10.14c0.64,-0.75 0.66,-1.86 0.04,-2.63 -0.62,-0.77 -1.7,-1 -2.58,-0.53 -8.57,4.54 -16.31,10.39 -23.01,17.4 -0.79,0.82 -0.76,2.13 0.06,2.92 0.82,0.79 2.13,0.76 2.92,-0.06 3.25,-3.4 6.76,-6.52 10.51,-9.33l-17.85 20.88c0.11,-7.46 2.52,-15.15 6.71,-21.32zm71.65 -1.28c6.3,-6.17 14.53,-9.76 22.58,-9.86 3.94,-0.05 7.94,0.74 11.75,2.26 -5.91,1.93 -11.6,4.38 -17.13,7.14 2.89,-1.85 5.8,-3.64 8.69,-5.41 0.94,-0.58 1.26,-1.79 0.73,-2.76 -0.53,-0.97 -1.73,-1.34 -2.72,-0.86l-24.23 11.91c-1.02,0.5 -1.45,1.74 -0.94,2.76 0.33,0.67 0.97,1.09 1.67,1.15 -3.22,2.57 -6.3,5.32 -9.17,8.32 -0.72,0.75 -0.77,1.92 -0.12,2.73 0.65,0.81 1.81,1 2.69,0.46 2.28,-1.41 4.57,-2.83 6.88,-4.24 -3.74,2.68 -7.4,5.48 -10.99,8.37 0.37,-7.92 4.11,-15.91 10.31,-21.98zm44.24 55.93c-9.39,14.52 -19.14,26.37 -29.79,36.21 -10.73,9.92 -22.39,17.83 -35.57,24.12 -0.79,-1.77 -1.76,-3.57 -2.89,-5.39 0.14,0.19 0.3,0.36 0.51,0.51 0.94,0.65 2.22,0.42 2.87,-0.52 1.12,-1.6 2.26,-3.19 3.42,-4.77 7.41,-9.92 16.1,-18.89 25.76,-26.64 -9.86,9.56 -19.34,19.65 -27.48,30.83 -0.65,0.9 -0.48,2.15 0.39,2.84 0.38,0.3 0.83,0.44 1.28,0.44 0.58,0 1.16,-0.25 1.57,-0.73 10.75,-12.61 24.32,-23.07 39.26,-30.25 1.03,-0.5 1.46,-1.73 0.97,-2.76 -0.5,-1.03 -1.73,-1.46 -2.76,-0.97 -5.65,2.72 -11.12,5.89 -16.32,9.46 7.94,-8.06 16.3,-15.69 24.52,-23.2 0.77,-0.7 0.89,-1.87 0.29,-2.72 -0.61,-0.85 -1.76,-1.11 -2.67,-0.61 -3.53,1.93 -6.98,4.01 -10.34,6.22 8.74,-7.86 18.04,-15.1 27.74,-21.61 0.9,-0.6 1.18,-1.8 0.63,-2.74 -0.54,-0.94 -1.72,-1.3 -2.69,-0.83 -10.73,5.24 -20.94,11.5 -30.47,18.66 10.02,-9.2 20.62,-17.8 31.06,-26.29 0.8,-0.65 1,-1.78 0.48,-2.66 -0.53,-0.88 -1.62,-1.24 -2.56,-0.85 -6.64,2.74 -13.05,5.95 -19.2,9.6 4.5,-3.58 9.05,-7.06 13.53,-10.5 3.73,-2.86 7.59,-5.82 11.35,-8.77 0.82,-0.64 1.03,-1.79 0.5,-2.68 -0.53,-0.89 -1.64,-1.25 -2.59,-0.84 -9.04,3.93 -17.77,8.61 -26.07,13.96 8.51,-6.74 17.27,-13.16 25.85,-19.46 0.84,-0.62 1.09,-1.76 0.58,-2.67 -0.5,-0.91 -1.61,-1.3 -2.58,-0.91 -2.87,1.17 -5.71,2.41 -8.52,3.72 4.89,-3.35 9.79,-6.63 14.65,-9.88 4.33,5.4 6.94,11.84 7.31,18.27 0.74,12.83 -6.04,25.11 -12.02,34.37zm-90.79 27.99c5.71,-7.68 11.65,-15.08 17.77,-22.18 -5.29,6.33 -9.9,12.77 -13.89,19.36 -0.59,0.97 -0.28,2.23 0.68,2.83 0.96,0.59 2.23,0.3 2.83,-0.66 15.86,-25.21 38.23,-46.26 64.24,-60.74 -9.39,7.13 -18.68,14.57 -27.35,22.6 -15.9,14.72 -27.54,29.37 -35.59,44.81 -0.51,0.98 -0.16,2.2 0.8,2.75 0.97,0.55 2.19,0.25 2.78,-0.69 15.21,-24.3 36.49,-44.92 61.19,-59.57 -8.08,6.24 -16.22,12.71 -23.83,19.63 -15.35,13.98 -26.14,27.77 -32.96,42.15 -0.48,1 -0.07,2.21 0.91,2.72 0.99,0.51 2.2,0.15 2.75,-0.82 7.58,-13.43 17.52,-25.55 29.53,-36.01 7.45,-6.49 15.49,-12.16 24.03,-16.97 -7.88,6.56 -15.96,13.55 -23.5,20.85 -13.22,12.79 -23.34,25.15 -30.93,37.78 -0.57,0.95 -0.29,2.18 0.63,2.78 0.92,0.61 2.16,0.38 2.81,-0.51 10.37,-14.32 22.79,-27.07 36.76,-37.84 -2.32,2.12 -4.6,4.27 -6.84,6.47 -9.77,9.59 -18.78,20 -26.84,30.99 -1.2,1.6 -2.36,3.23 -3.49,4.88 -0.44,0.65 -0.47,1.45 -0.14,2.1 -5.08,-8.15 -13.08,-16.72 -20.88,-25.08 -0.5,-0.54 -1.01,-1.08 -1.5,-1.62zm63.48 -63.54c-6.26,4.58 -12.43,9.33 -18.36,14.31 -7.12,5.98 -13.54,11.97 -19.3,18.03 4.67,-5.07 9.44,-9.95 14.29,-14.64 0.47,-0.41 0.95,-0.82 1.43,-1.23 7.01,-5.96 14.34,-11.46 21.94,-16.48zm-68.6 55.6c12.04,-16.55 26.64,-31.73 43.39,-45.13 6.49,-5.19 13.31,-10.12 20.43,-14.78 -7.06,5.74 -13.98,11.86 -20.71,18.32 -0.22,0.21 -0.44,0.43 -0.67,0.64 -15.54,13.44 -29.08,28.77 -40.34,45.63 -1.21,-1.31 -2.38,-2.6 -3.49,-3.86 0.54,-0.07 1.05,-0.36 1.39,-0.83zm97.06 -76.53c0.12,0.11 0.23,0.22 0.34,0.33 -5.36,2.43 -10.63,5.07 -15.78,7.91 4.64,-3.32 9.34,-6.47 14.08,-9.45 0.46,0.39 0.92,0.79 1.36,1.21zm-5.25 -4.06c-16.89,8.35 -32.61,18.08 -46.84,28.99 14.43,-11.53 30.09,-21.3 46.63,-29.12 0.07,0.04 0.14,0.09 0.21,0.13zm-53.85 28.51c0.19,0.15 0.4,0.27 0.63,0.36 -0.39,0.33 -0.79,0.66 -1.18,0.99 -6.09,5.13 -11.91,10.54 -17.44,16.21 5.81,-6.24 12.01,-12.04 18,-17.56zm-3.31 -8.9c0.55,1.37 1.06,2.78 1.54,4.24 -7.12,3.51 -13.69,7.97 -19.82,12.94 5.95,-5.92 12.14,-11.59 18.27,-17.18zm-46.91 47.51c-6.94,-10.53 -13.16,-22.55 -14.26,-35.62 0.71,0.21 1.5,0.03 2.05,-0.54 6.81,-6.95 14.13,-13.38 21.88,-19.23 -6.47,6.93 -12.62,14.23 -17.83,22.23 -0.58,0.9 -0.38,2.1 0.47,2.76 0.85,0.66 2.06,0.55 2.79,-0.25 7.08,-7.79 14.96,-14.72 23.53,-20.71 -8.1,8.73 -15.8,17.86 -23.02,27.28 -0.68,0.89 -0.53,2.17 0.35,2.87 0.88,0.7 2.16,0.57 2.88,-0.3 7.4,-8.93 16.23,-16.69 26.01,-22.94 -6.6,6.19 -13.03,12.58 -19.22,19.1 -3.51,3.69 -6.96,7.73 -7.35,12.92 -0.07,0.93 0.5,1.8 1.38,2.1 0.88,0.31 1.86,-0.02 2.38,-0.79 8.41,-12.4 19.72,-23 32.63,-30.76 -12.8,11.97 -25.2,24.7 -34.61,39.79 -0.4,0.65 -0.41,1.44 -0.06,2.07zm12.73 24.34c0.58,0.4 1.31,0.46 1.93,0.22 0.4,0.43 0.8,0.86 1.2,1.29 9.57,10.25 20.42,21.88 23.92,31.42 0.2,0.54 0.61,0.98 1.15,1.19 0.26,0.11 0.52,0.16 0.79,0.16 0.29,0 0.59,-0.06 0.87,-0.19 27.66,-12.73 49.6,-32.67 69.05,-62.76 6.33,-9.79 13.49,-22.82 12.68,-36.85 -0.45,-7.69 -3.59,-14.96 -8.45,-20.89 0.05,-0.41 -0.02,-0.85 -0.24,-1.24 -0.37,-0.68 -1.08,-1.07 -1.82,-1.07 -1.32,-1.38 -2.74,-2.68 -4.24,-3.86 -0.13,-0.13 -0.27,-0.24 -0.42,-0.33 -1.03,-0.79 -2.09,-1.53 -3.19,-2.22 -0.36,-0.58 -0.97,-0.94 -1.64,-0.97 -5.45,-3.06 -11.59,-4.8 -17.88,-4.73 -16.17,0.2 -31.06,12.4 -35.6,27.72 -3,-7.58 -7.03,-13.84 -12.02,-18.69 -8.12,-7.89 -18.87,-11.72 -28.76,-10.25 -8.32,1.24 -15.85,6.27 -21.22,14.17 -4.94,7.27 -7.64,16.46 -7.41,25.22 0.47,17.92 10.07,33.74 19.39,46.86 2.85,4 6.82,8.47 11.2,13.21 -0.44,0.91 -0.16,2.02 0.69,2.6z"/>
 </g>
</svg>
